<svg xmlns="http://www.w3.org/2000/svg" width="222" height="52" viewBox="0 0 222 52"><defs><style>.a,.b{fill:#fffcfc;font-family:Menlo-Regular, Menlo;}.a{font-size:28px;}.b{font-size:16px;}.c{fill:#96ce7a;}.d{fill:#eaeaea;}.e{fill:#fff;mix-blend-mode:soft-light;isolation:isolate;}</style></defs><text class="a" transform="translate(0 26)"><tspan x="0" y="0" xml:space="preserve">PHP B    STER</tspan></text><text class="b" transform="translate(0 48)"><tspan x="0" y="0">all you need for coding</tspan></text><g transform="translate(90 4)"><path class="c" d="M11.379,0H30a0,0,0,0,1,0,0V22a0,0,0,0,1,0,0H10.621A10.621,10.621,0,0,1,0,11.379v0A11.379,11.379,0,0,1,11.379,0Z"/><path class="d" d="M0,0H18.621A11.379,11.379,0,0,1,30,11.379v0A10.621,10.621,0,0,1,19.379,22H0a0,0,0,0,1,0,0V0A0,0,0,0,1,0,0Z" transform="translate(29)"/><rect class="e" width="38" height="2" rx="1" transform="translate(10 3)"/></g></svg>